<svg xmlns="http://www.w3.org/2000/svg" viewBox="0 0 68.04 66.47"><defs><style>.cls-1{fill:#a6a8ab;}.cls-2{fill:#ea563e;}.cls-3{fill:#2ba4b7;}.cls-4{fill:#fff;}</style></defs><title>Asset 7</title><g id="Layer_2" data-name="Layer 2"><g id="Layer_1-2" data-name="Layer 1"><g id="_Group_" data-name="&lt;Group&gt;"><path id="_Compound_Path_" data-name="&lt;Compound Path&gt;" class="cls-1" d="M27.94,61.87H17.67c0-.25-.05-.48-.05-.71q0-17.8,0-35.61a.92.92,0,0,1,.6-1q8.5-4.22,17-8.48a1.15,1.15,0,0,1,1.16,0q8.47,4.26,17,8.48a.92.92,0,0,1,.6,1q0,17.8,0,35.61v.69H43.6c0-.25,0-.51,0-.76q0-5.75,0-11.49c0-1.44-.42-1.85-1.87-1.85H29.81c-1.44,0-1.86.42-1.86,1.86q0,5.71,0,11.43ZM40.29,26.65a4.54,4.54,0,1,0-4.53,4.58A4.56,4.56,0,0,0,40.29,26.65Zm9.93,23.94c0-.49,0-1,0-1.46a1.45,1.45,0,0,0-1.44-1.5,1.42,1.42,0,0,0-1.39,1.48c0,1,0,2,0,3a1.4,1.4,0,0,0,1.4,1.46,1.44,1.44,0,0,0,1.43-1.51C50.24,51.57,50.22,51.08,50.22,50.59Zm-28.93,0c0,.49,0,1,0,1.46a1.43,1.43,0,0,0,1.43,1.51,1.4,1.4,0,0,0,1.39-1.47c0-1,0-2,0-3a1.42,1.42,0,0,0-1.39-1.48,1.46,1.46,0,0,0-1.44,1.5C21.26,49.62,21.29,50.11,21.29,50.59ZM50.22,39.35c0-.49,0-1,0-1.46a1.47,1.47,0,0,0-1.39-1.56,1.44,1.44,0,0,0-1.44,1.5c0,1,0,1.95,0,2.92a1.42,1.42,0,0,0,1.42,1.52,1.46,1.46,0,0,0,1.42-1.59C50.24,40.23,50.22,39.79,50.22,39.35Zm-13,0h0c0-.53,0-1.06,0-1.59a1.53,1.53,0,0,0-.07-.32,1.4,1.4,0,0,0-1.38-1.11,1.28,1.28,0,0,0-1.3,1.1,31.13,31.13,0,0,0,0,3.7,1.27,1.27,0,0,0,1.33,1.13,1.33,1.33,0,0,0,1.35-1.13C37.19,40.55,37.18,40,37.22,39.36Zm-16,0a17.71,17.71,0,0,0,.13,1.86,1.32,1.32,0,0,0,1.38,1.09,1.28,1.28,0,0,0,1.3-1.17,33.49,33.49,0,0,0,0-3.57,1.3,1.3,0,0,0-1.29-1.19,1.35,1.35,0,0,0-1.4,1.14A17.89,17.89,0,0,0,21.25,39.31Z"/><rect id="_Rectangle_" data-name="&lt;Rectangle&gt;" class="cls-1" x="30.14" y="21.09" width="12.28" height="14.18"/><rect id="_Rectangle_2" data-name="&lt;Rectangle&gt;" class="cls-1" x="20.41" y="35.26" width="30.62" height="26.61"/><path id="_Path_" data-name="&lt;Path&gt;" class="cls-2" d="M40.52,51.24V62.71H36.66V51.24Z"/><path id="_Path_2" data-name="&lt;Path&gt;" class="cls-2" d="M43.68,6.6H36.37V2h7.51c-.55.43-1,.76-1.4,1.11a1.38,1.38,0,0,0,0,2.38c.41.33.83.65,1.25,1Z"/><rect id="_Rectangle_3" data-name="&lt;Rectangle&gt;" class="cls-3" x="59.33" y="38.7" width="4.82" height="19.72"/><rect id="_Rectangle_4" data-name="&lt;Rectangle&gt;" class="cls-3" x="7.95" y="38.7" width="4.37" height="20.84"/><path id="_Compound_Path_2" data-name="&lt;Compound Path&gt;" class="cls-3" d="M66.9,35.26V61.85H56.78V35.26ZM63.26,43.6h0c0-.53,0-1.06,0-1.59a1.44,1.44,0,0,0-1.44-1.43A1.41,1.41,0,0,0,60.44,42c0,1,0,2,0,3a1.41,1.41,0,0,0,1.4,1.46A1.44,1.44,0,0,0,63.25,45C63.27,44.52,63.26,44.06,63.26,43.6Zm0,11.27c0-.51,0-1,0-1.52a1.45,1.45,0,0,0-1.4-1.48,1.41,1.41,0,0,0-1.41,1.45c0,1,0,2,0,3a1.41,1.41,0,0,0,1.42,1.44,1.44,1.44,0,0,0,1.4-1.48C63.28,55.84,63.25,55.36,63.25,54.87Z"/><path id="_Compound_Path_3" data-name="&lt;Compound Path&gt;" class="cls-3" d="M14.72,61.87H4.63V35.28H14.72ZM8.25,43.53c0,.51,0,1,0,1.52a1.44,1.44,0,0,0,1.42,1.46,1.4,1.4,0,0,0,1.4-1.46c0-1,0-2,0-3a1.42,1.42,0,0,0-1.37-1.49,1.45,1.45,0,0,0-1.45,1.49C8.23,42.55,8.25,43,8.25,43.53ZM11,54.87h0c0-.51,0-1,0-1.52a1.55,1.55,0,0,0,0-.2,1.39,1.39,0,0,0-1.3-1.27,1.26,1.26,0,0,0-1.4,1.05,27.72,27.72,0,0,0,0,3.82,1.27,1.27,0,0,0,1.4,1A1.35,1.35,0,0,0,11,56.59C11.09,56,11,55.45,11,54.87Z"/><path id="_Path_3" data-name="&lt;Path&gt;" class="cls-2" d="M56.34,33.21V26.32c1.13,0,2.22,0,3.32,0a.57.57,0,0,1,.37.23q2.45,3.26,4.89,6.54s0,0,0,.11Z"/><path id="_Path_4" data-name="&lt;Path&gt;" class="cls-2" d="M15.17,26.32v6.9H6.52c.14-.22.25-.4.37-.57,1.46-1.95,2.93-3.89,4.38-5.84a1.06,1.06,0,0,1,1-.5C13.21,26.34,14.16,26.32,15.17,26.32Z"/><path id="_Path_5" data-name="&lt;Path&gt;" d="M48.49,52.33c0,.49,0,1,0,1.46A1.44,1.44,0,0,1,47,55.29a1.4,1.4,0,0,1-1.4-1.46c0-1,0-2,0-3A1.42,1.42,0,0,1,47,49.37a1.45,1.45,0,0,1,1.44,1.5C48.51,51.35,48.49,51.84,48.49,52.33Z"/><path id="_Path_6" data-name="&lt;Path&gt;" d="M19.55,52.33c0-.49,0-1,0-1.46A1.46,1.46,0,0,1,21,49.37a1.42,1.42,0,0,1,1.39,1.48c0,1,0,2,0,3A1.4,1.4,0,0,1,21,55.29a1.43,1.43,0,0,1-1.43-1.51C19.53,53.3,19.55,52.81,19.55,52.33Z"/><path id="_Path_7" data-name="&lt;Path&gt;" d="M48.49,41.08c0,.44,0,.88,0,1.33A1.46,1.46,0,0,1,47.06,44a1.42,1.42,0,0,1-1.42-1.52c0-1,0-1.95,0-2.92a1.44,1.44,0,0,1,1.44-1.5,1.47,1.47,0,0,1,1.39,1.56C48.51,40.11,48.49,40.59,48.49,41.08Z"/><path id="_Path_8" data-name="&lt;Path&gt;" d="M35.48,41.09c0,.59,0,1.19-.12,1.78A1.33,1.33,0,0,1,34,44a1.27,1.27,0,0,1-1.33-1.13,31.13,31.13,0,0,1,0-3.7,1.28,1.28,0,0,1,1.3-1.1,1.4,1.4,0,0,1,1.38,1.11,1.53,1.53,0,0,1,.07.32c0,.53,0,1.06,0,1.59Z"/><path id="_Path_9" data-name="&lt;Path&gt;" d="M19.52,41a17.89,17.89,0,0,1,.12-1.83A1.35,1.35,0,0,1,21,38.07a1.3,1.3,0,0,1,1.29,1.19,33.49,33.49,0,0,1,0,3.57A1.28,1.28,0,0,1,21,44a1.32,1.32,0,0,1-1.38-1.09A17.71,17.71,0,0,1,19.52,41Z"/><path id="_Path_10" data-name="&lt;Path&gt;" d="M6.52,45.26c0-.49,0-1,0-1.46A1.45,1.45,0,0,1,8,42.31,1.42,1.42,0,0,1,9.34,43.8c0,1,0,2,0,3a1.4,1.4,0,0,1-1.4,1.46,1.44,1.44,0,0,1-1.42-1.46C6.49,46.28,6.52,45.77,6.52,45.26Z"/><path id="_Path_11" data-name="&lt;Path&gt;" d="M9.31,56.61c0,.57,0,1.15,0,1.72A1.35,1.35,0,0,1,8,59.54a1.27,1.27,0,0,1-1.4-1,27.72,27.72,0,0,1,0-3.82A1.26,1.26,0,0,1,8,53.61a1.39,1.39,0,0,1,1.3,1.27,1.55,1.55,0,0,1,0,.2c0,.51,0,1,0,1.52Z"/><path id="_Path_12" data-name="&lt;Path&gt;" d="M61.52,45.33c0,.46,0,.93,0,1.39a1.44,1.44,0,0,1-1.42,1.52,1.41,1.41,0,0,1-1.4-1.46c0-1,0-2,0-3a1.41,1.41,0,0,1,1.37-1.43,1.44,1.44,0,0,1,1.44,1.43c0,.53,0,1.06,0,1.59Z"/><path id="_Path_13" data-name="&lt;Path&gt;" d="M61.52,56.6c0,.49,0,1,0,1.46a1.44,1.44,0,0,1-1.4,1.48A1.41,1.41,0,0,1,58.7,58.1c0-1,0-2,0-3a1.41,1.41,0,0,1,1.41-1.45,1.45,1.45,0,0,1,1.4,1.48C61.54,55.59,61.52,56.1,61.52,56.6Z"/><rect id="_Rectangle_5" data-name="&lt;Rectangle&gt;" class="cls-4" x="27.94" y="51.24" width="3.82" height="11.98"/><rect id="_Rectangle_6" data-name="&lt;Rectangle&gt;" class="cls-4" x="33.02" y="51.24" width="3.82" height="11.98"/><path id="_Path_14" data-name="&lt;Path&gt;" class="cls-2" d="M34,62.73H30.14V51.24H34Z"/><path id="_Compound_Path_4" data-name="&lt;Compound Path&gt;" d="M0,35.09q3.76-5,7.53-10A1.71,1.71,0,0,1,9,24.33c1.53,0,3.06,0,4.58,0a2.42,2.42,0,0,0,1-.23L32,15.39a.86.86,0,0,0,.55-.91c0-4.16,0-8.33,0-12.49,0-1.52.47-2,2-2H46.12a1.43,1.43,0,0,1,1.6,1.17,1.54,1.54,0,0,1-.65,1.5c-1,.81-1.92,1.63-2.94,2.49l2.56,2.17a5.76,5.76,0,0,1,.73.68,1.37,1.37,0,0,1-.76,2.24,4.19,4.19,0,0,1-.92.07H35.46c0,1.57,0,3.07,0,4.57,0,.14.21.32.37.39q8.89,4.46,17.8,8.9a1.8,1.8,0,0,0,.77.14c1.51,0,3,0,4.52,0a1.86,1.86,0,0,1,1.65.8c2.34,3.14,4.72,6.26,7,9.41A2.19,2.19,0,0,1,68,35.75q0,14.48,0,29c0,1.21-.54,1.75-1.74,1.75H1.73A1.75,1.75,0,0,1,0,65.39ZM26.21,63.61v-.84q0-5.71,0-11.43c0-1.44.42-1.85,1.86-1.86H40c1.45,0,1.87.41,1.87,1.85q0,5.75,0,11.49c0,.25,0,.51,0,.76H52.16V62.9q0-17.8,0-35.61a.92.92,0,0,0-.6-1q-8.5-4.22-17-8.48a1.15,1.15,0,0,0-1.16,0q-8.47,4.26-17,8.48a.92.92,0,0,0-.6,1q0,17.8,0,35.61c0,.23,0,.46.05.71ZM13,63.6V37H2.89V63.6ZM65.16,37H55V63.59H65.16ZM39.22,52.1H35.36V63.57h3.86ZM32.69,63.6V52.1H28.84V63.6ZM13,27.18c-1,0-2,0-2.91,0a1.06,1.06,0,0,0-1,.5c-1.45,2-2.92,3.89-4.38,5.84-.12.16-.22.34-.37.57H13Zm42,6.9h8.58c0-.07,0-.1,0-.11q-2.44-3.27-4.89-6.54a.57.57,0,0,0-.37-.23c-1.1,0-2.2,0-3.32,0ZM42.24,7.47l.05-.14c-.38-.32-.77-.64-1.15-1a1.44,1.44,0,0,1,0-2.38c.38-.35.78-.68,1.29-1.11H35.5v4.6h6.74Z"/><path id="_Path_15" data-name="&lt;Path&gt;" class="cls-4" d="M34.08,26.57a1.85,1.85,0,0,1,1.84,1.86,1.86,1.86,0,0,1-3.71,0A1.85,1.85,0,0,1,34.08,26.57Z"/><path id="_Path_16" data-name="&lt;Path&gt;" class="cls-3" d="M34.91,26.13A1.85,1.85,0,0,1,36.74,28,1.86,1.86,0,0,1,33,28,1.85,1.85,0,0,1,34.91,26.13Z"/><path id="_Compound_Path_5" data-name="&lt;Compound Path&gt;" d="M38.56,28.38A4.54,4.54,0,1,1,34,23.86,4.57,4.57,0,0,1,38.56,28.38ZM34,26.57a1.85,1.85,0,0,0-1.88,1.82,1.86,1.86,0,0,0,3.71,0A1.85,1.85,0,0,0,34,26.57Z"/></g></g></g></svg>