<svg xmlns="http://www.w3.org/2000/svg" viewBox="0 0 25.99 22.74"><defs><style>.cls-1{fill:#ea563e;}.cls-2{fill:#bbbdbf;}</style></defs><title>Asset 2</title><g id="Layer_2" data-name="Layer 2"><g id="Layer_1-2" data-name="Layer 1"><g id="_Group_" data-name="&lt;Group&gt;"><path id="_Path_" data-name="&lt;Path&gt;" class="cls-1" d="M1.77,18.68H18.11c0,.11,0,.22,0,.33,0,.51,0,1,0,1.52A2.31,2.31,0,0,0,18.73,22l-.21,0h-15A1.67,1.67,0,0,1,1.77,20.2C1.77,19.7,1.77,19.2,1.77,18.68Z"/><path id="_Path_2" data-name="&lt;Path&gt;" class="cls-1" d="M25.83,4.06h-3.3c0-.53,0-1,0-1.57A1.66,1.66,0,0,1,24.72.86a1.68,1.68,0,0,1,1.11,1.39C25.84,2.84,25.83,3.44,25.83,4.06Z"/><path id="_Compound_Path_" data-name="&lt;Compound Path&gt;" d="M4.06,17.91v-.36q0-7.54,0-15.07A2.4,2.4,0,0,1,5.88.09,3,3,0,0,1,6.61,0H23.43A2.46,2.46,0,0,1,26,2.57c0,.58,0,1.17,0,1.75,0,.39-.12.51-.52.51H21.92v.35q0,7.55,0,15.1a2.4,2.4,0,0,1-1.83,2.38,3,3,0,0,1-.7.08H2.54A2.42,2.42,0,0,1,0,20.18q0-.88,0-1.75c0-.41.11-.52.53-.52H4.06Zm.76,0H17.3c.44,0,.55.11.55.56s0,1.17,0,1.75a2.09,2.09,0,0,0,0,.48A1.68,1.68,0,0,0,19.64,22a1.66,1.66,0,0,0,1.52-1.67q0-8.78,0-17.56A2.79,2.79,0,0,1,21.74.83s0,0,0-.06H6.48A1.67,1.67,0,0,0,4.82,2.49q0,7.52,0,15Zm-4.06.77c0,.52,0,1,0,1.52A1.67,1.67,0,0,0,2.51,22h15l.21,0a2.31,2.31,0,0,1-.61-1.42c0-.51,0-1,0-1.52,0-.11,0-.21,0-.33ZM25.22,4.06c0-.62,0-1.21,0-1.8A1.68,1.68,0,0,0,24.11.86a1.66,1.66,0,0,0-2.2,1.63c0,.52,0,1,0,1.57Z"/><path id="_Compound_Path_2" data-name="&lt;Compound Path&gt;" class="cls-2" d="M4.82,17.91v-.37q0-7.52,0-15A1.67,1.67,0,0,1,6.48.77H21.74s0,.05,0,.06a2.79,2.79,0,0,0-.59,1.91q0,8.78,0,17.56A1.66,1.66,0,0,1,19.64,22a1.68,1.68,0,0,1-1.75-1.27,2.09,2.09,0,0,1,0-.48c0-.58,0-1.17,0-1.75s-.11-.56-.55-.56H4.82ZM14.2,4.42h4.44a.39.39,0,0,0,.43-.37.41.41,0,0,0-.39-.39H9.91a1,1,0,0,0-.3,0,.34.34,0,0,0-.25.39.35.35,0,0,0,.33.33H14.2Zm0,4.07h4.54a.32.32,0,0,0,.3-.34.71.71,0,0,0-.25-.36c-.06-.05-.18,0-.27,0H9.88c-.33,0-.53.14-.53.38s.18.38.52.38h4.34Zm0,5.35H9.79a.39.39,0,0,0-.44.36.41.41,0,0,0,.41.4h8.75c.35,0,.55-.14.56-.38s-.19-.38-.55-.38H14.21Zm-.42-3.31h3.88c.39,0,.58-.12.58-.37s-.2-.39-.6-.39H9.95c-.4,0-.6.13-.59.39s.19.37.58.37Zm-.19,5.35H9.95c-.09,0-.21,0-.27,0s-.28.2-.3.32a.55.55,0,0,0,.22.37c.07.06.23.05.34.05h7.33c.12,0,.27,0,.34-.05a.55.55,0,0,0,.22-.38c0-.12-.18-.23-.3-.32s-.18,0-.27,0Zm-.2-9.42h3.47c.08,0,.19,0,.25,0s.28-.2.3-.32a.55.55,0,0,0-.22-.38c-.07-.06-.22-.05-.34-.05H9.94c-.12,0-.27,0-.34.05a.55.55,0,0,0-.22.38c0,.12.18.23.3.32s.16,0,.25,0ZM13,11.8H10l-.3,0a.34.34,0,0,0-.31.34.34.34,0,0,0,.3.38l.23,0H16.1c.34,0,.53-.14.53-.38s-.18-.38-.52-.38H13ZM7.7,4.42h.43a.34.34,0,0,0,.34-.33c0-.2-.07-.37-.28-.39a6.16,6.16,0,0,0-1,0,.32.32,0,0,0-.28.39.35.35,0,0,0,.35.33Zm0,2h0c.16,0,.32,0,.48,0a.33.33,0,0,0,.31-.32c0-.19,0-.37-.24-.39a6.34,6.34,0,0,0-1.05,0,.31.31,0,0,0-.27.37.35.35,0,0,0,.34.34Zm0,10.2c.16,0,.33,0,.5,0a.33.33,0,0,0,.28-.39.33.33,0,0,0-.34-.33H7.28a.34.34,0,0,0-.36.35.34.34,0,0,0,.3.38C7.38,16.64,7.54,16.64,7.7,16.65Zm0-8.17c.15,0,.3,0,.46,0a.33.33,0,0,0,.32-.33c0-.2-.07-.37-.28-.39a7,7,0,0,0-1,0,.32.32,0,0,0-.28.36.34.34,0,0,0,.33.35C7.4,8.49,7.55,8.48,7.7,8.48Zm0,5.37H7.26a.34.34,0,0,0-.34.34.31.31,0,0,0,.27.37,6.79,6.79,0,0,0,1,0c.19,0,.27-.18.26-.37a.33.33,0,0,0-.31-.34C8,13.84,7.86,13.85,7.71,13.85Zm0-3.32c.16,0,.32,0,.48,0a.32.32,0,0,0,.3-.35c0-.19-.08-.35-.28-.36a7.28,7.28,0,0,0-1,0,.32.32,0,0,0-.28.36.34.34,0,0,0,.31.35C7.38,10.53,7.54,10.53,7.7,10.53Zm0,1.28c-.15,0-.3,0-.45,0a.34.34,0,0,0-.34.37.33.33,0,0,0,.32.36,9,9,0,0,0,.93,0,.32.32,0,0,0,.31-.36.33.33,0,0,0-.34-.36C8,11.81,7.86,11.81,7.71,11.82Z"/><path id="_Path_3" data-name="&lt;Path&gt;" d="M14.2,4.42H9.69a.35.35,0,0,1-.33-.33.34.34,0,0,1,.25-.39,1,1,0,0,1,.3,0h8.77a.41.41,0,0,1,.39.39.39.39,0,0,1-.43.37Z"/><path id="_Path_4" data-name="&lt;Path&gt;" d="M14.21,8.49H9.87c-.34,0-.52-.14-.52-.38s.2-.38.53-.38h8.65c.09,0,.21,0,.27,0a.71.71,0,0,1,.25.36.32.32,0,0,1-.3.34H14.21Z"/><path id="_Path_5" data-name="&lt;Path&gt;" class="cls-2" d="M14.21,13.84h4.31c.36,0,.55.13.55.38s-.2.38-.56.38H9.76a.41.41,0,0,1-.41-.4.39.39,0,0,1,.44-.36h4.41Z"/><path id="_Path_6" data-name="&lt;Path&gt;" class="cls-2" d="M13.79,10.53H9.94c-.39,0-.58-.12-.58-.37s.2-.39.59-.39h7.71c.4,0,.6.13.6.39s-.2.37-.58.37Z"/><path id="_Path_7" data-name="&lt;Path&gt;" class="cls-2" d="M13.6,15.88h3.65c.09,0,.21,0,.27,0s.29.2.3.32a.55.55,0,0,1-.22.38c-.07.06-.22.05-.34.05H9.94c-.12,0-.27,0-.34-.05a.55.55,0,0,1-.22-.37c0-.12.17-.24.3-.32s.18,0,.27,0Z"/><path id="_Path_8" data-name="&lt;Path&gt;" class="cls-2" d="M13.4,6.46H9.92c-.08,0-.19,0-.25,0s-.28-.2-.3-.32a.55.55,0,0,1,.22-.38c.07-.06.22-.05.34-.05h6.92c.12,0,.27,0,.34.05a.55.55,0,0,1,.22.38c0,.12-.18.23-.3.32s-.16,0-.25,0Z"/><path id="_Path_9" data-name="&lt;Path&gt;" d="M13,11.8h3.12c.34,0,.52.14.52.38s-.19.38-.53.38H9.89l-.23,0a.34.34,0,0,1-.3-.38.34.34,0,0,1,.31-.34l.3,0Z"/><path id="_Path_10" data-name="&lt;Path&gt;" d="M7.7,4.42H7.27a.35.35,0,0,1-.35-.33A.32.32,0,0,1,7.2,3.7a6.16,6.16,0,0,1,1,0c.2,0,.3.18.28.39a.34.34,0,0,1-.34.33Z"/><path id="_Path_11" data-name="&lt;Path&gt;" class="cls-2" d="M7.69,6.45H7.26a.35.35,0,0,1-.34-.34.31.31,0,0,1,.27-.37,6.34,6.34,0,0,1,1.05,0c.19,0,.26.2.24.39a.33.33,0,0,1-.31.32c-.16,0-.32,0-.48,0Z"/><path id="_Path_12" data-name="&lt;Path&gt;" class="cls-2" d="M7.7,16.65c-.17,0-.33,0-.48,0a.34.34,0,0,1-.3-.38.34.34,0,0,1,.36-.35h.86a.33.33,0,0,1,.34.33.33.33,0,0,1-.28.39C8,16.64,7.87,16.64,7.7,16.65Z"/><path id="_Path_13" data-name="&lt;Path&gt;" d="M7.7,8.48c-.15,0-.3,0-.46,0a.34.34,0,0,1-.33-.35.32.32,0,0,1,.28-.36,7,7,0,0,1,1,0c.21,0,.29.19.28.39a.33.33,0,0,1-.32.33C8,8.49,7.85,8.48,7.7,8.48Z"/><path id="_Path_14" data-name="&lt;Path&gt;" class="cls-2" d="M7.71,13.85c.15,0,.3,0,.45,0a.33.33,0,0,1,.31.34c0,.19-.07.36-.26.37a6.79,6.79,0,0,1-1,0,.31.31,0,0,1-.27-.37.34.34,0,0,1,.34-.34h.46Z"/><path id="_Path_15" data-name="&lt;Path&gt;" class="cls-2" d="M7.7,10.53c-.16,0-.32,0-.48,0a.34.34,0,0,1-.31-.35A.32.32,0,0,1,7.2,9.8a7.28,7.28,0,0,1,1,0c.19,0,.28.17.28.36a.32.32,0,0,1-.3.35C8,10.53,7.86,10.53,7.7,10.53Z"/><path id="_Path_16" data-name="&lt;Path&gt;" d="M7.71,11.82c.14,0,.29,0,.43,0a.33.33,0,0,1,.34.36.32.32,0,0,1-.31.36,9,9,0,0,1-.93,0,.33.33,0,0,1-.32-.36.34.34,0,0,1,.34-.37C7.41,11.81,7.56,11.82,7.71,11.82Z"/></g></g></g></svg>