<svg xmlns="http://www.w3.org/2000/svg" viewBox="0 0 66.59 55.48"><defs><style>.cls-1{fill:#ea563e;}.cls-2{fill:#2ba4b7;}.cls-3{fill:#bbbdbf;}</style></defs><title>Asset 6</title><g id="Layer_2" data-name="Layer 2"><g id="Layer_1-2" data-name="Layer 1"><g id="_Group_" data-name="&lt;Group&gt;"><path id="_Path_" data-name="&lt;Path&gt;" class="cls-1" d="M30.24,25.42H8.7c-2.14,0-3.23-1.08-3.23-3.22q0-5.1,0-10.21c0-2.14,1.09-3.22,3.23-3.22,18,0,36.12.76,54.15.77,2.17,0,2.36.66,2.37,2.87,0,3.36.82,6.37.81,9.73,0,2.21-1.06,3.29-3.23,3.29H41.26c0-.43,0-.82,0-1.2a1.42,1.42,0,0,0-1.58-1.56q-3.93,0-7.87,0a1.42,1.42,0,0,0-1.57,1.56C30.23,24.58,30.24,25,30.24,25.42Z"/><rect id="_Rectangle_" data-name="&lt;Rectangle&gt;" class="cls-2" x="38.13" y="29.71" width="6.25" height="6.11"/><path id="_Path_2" data-name="&lt;Path&gt;" class="cls-3" d="M5.47,27.39c1.49.93,3,.79,4.53.79H30.4c0,.28,0,.51,0,.74,0,1.06,0,2.12,0,3.19s.51,1.61,1.46,1.62q4.1,0,8.19,0c.94,0,1.43-.59,1.45-1.63s0-2.08,0-3.12c0-.24,0-.47,0-.8H61.81c1.57,0,3.17.17,4.68-.75,0,.34,0,.56,0,.79q0,9.43,0,18.85c0,2.25-1.06,3.31-3.29,3.31H8.76c-2.2,0-3.28-1.07-3.28-3.26q0-9.46,0-18.92C5.47,28,5.47,27.78,5.47,27.39Z"/><path id="_Path_3" data-name="&lt;Path&gt;" class="cls-2" d="M31.71,32.1V26.61h5.46V32.1Z"/><path id="_Path_4" data-name="&lt;Path&gt;" class="cls-2" d="M22.24,8.28c0-1.1-.07-2.14,0-3.17A2.7,2.7,0,0,1,25,2.77c1.82,0,3.64,0,5.46,0H41.21a2.83,2.83,0,0,1,3.18,3.15c0,.78,0,1.55,0,2.37Z"/><rect id="_Rectangle_2" data-name="&lt;Rectangle&gt;" class="cls-1" x="26.74" y="18.8" width="17.02" height="6.62"/><path id="_Compound_Path_" data-name="&lt;Compound Path&gt;" d="M0,13.17a6.73,6.73,0,0,1,1.39-2.95A5,5,0,0,1,5.06,8.38c4.16-.06,8.32,0,12.48-.05h2c0-1.2-.06-2.33,0-3.44A5.47,5.47,0,0,1,24.28.05c.32,0,.65-.05,1-.05H41.32a5.34,5.34,0,0,1,5.24,3.15,9.16,9.16,0,0,1,.6,2.76,20.65,20.65,0,0,1,0,2.42H60.73A5.38,5.38,0,0,1,66,11.46,6.15,6.15,0,0,1,66.56,14q.05,17.88,0,35.76a5.51,5.51,0,0,1-5.47,5.67h-.65q-27.21,0-54.42,0A5.53,5.53,0,0,1,1.13,53.2,14.21,14.21,0,0,1,0,50.62ZM2.76,29.71c0,.39,0,.61,0,.82q0,9.46,0,18.92c0,2.19,1.08,3.26,3.28,3.26H60.53c2.23,0,3.29-1.07,3.29-3.31q0-9.43,0-18.85c0-.23,0-.46,0-.79-1.51.92-3.11.75-4.68.75H38.85c0,.32,0,.56,0,.8,0,1,0,2.08,0,3.12S38.34,36,37.39,36q-4.1,0-8.19,0c-.95,0-1.44-.59-1.46-1.62s0-2.12,0-3.19c0-.23,0-.46,0-.74H7.29C5.79,30.5,4.26,30.64,2.76,29.71Zm25-2c0-.46,0-.83,0-1.2A1.42,1.42,0,0,1,29.33,25q4,0,7.93,0a1.42,1.42,0,0,1,1.59,1.56c0,.38,0,.76,0,1.2H60.57c2.19,0,3.25-1.08,3.26-3.29q0-5,0-10.08c0-2.21-1.07-3.29-3.26-3.29H6c-2.16,0-3.25,1.08-3.26,3.22q0,5.1,0,10.21c0,2.15,1.09,3.22,3.25,3.22H27.74ZM22.24,8.28H44.38c0-.81,0-1.59,0-2.37a2.83,2.83,0,0,0-3.18-3.15H30.48c-1.82,0-3.64,0-5.46,0a2.7,2.7,0,0,0-2.76,2.34C22.17,6.14,22.24,7.19,22.24,8.28Zm8.32,25H36V27.77H30.55Z"/></g></g></g></svg>