<svg xmlns="http://www.w3.org/2000/svg" viewBox="0 0 21.76 21.76"><defs><style>.cls-1{fill:#2ba4b7;}.cls-2{fill:none;stroke:#000;stroke-miterlimit:10;}.cls-3{fill:#fff;}</style></defs><title>Asset 4</title><g id="Layer_2" data-name="Layer 2"><g id="Layer_1-2" data-name="Layer 1"><g id="_Group_" data-name="&lt;Group&gt;"><circle id="_Path_" data-name="&lt;Path&gt;" class="cls-1" cx="10.88" cy="10.88" r="10.38"/><circle id="_Path_2" data-name="&lt;Path&gt;" class="cls-2" cx="10.88" cy="10.88" r="10.38"/><path id="_Path_3" data-name="&lt;Path&gt;" class="cls-3" d="M2.87,14.77c1.88-1.7,5-3.77,7-5.26A20.4,20.4,0,0,1,10.42,13c1.73-1.78,3.53-3.13,5.38-4.73A5.51,5.51,0,0,0,14,6.25c1.64.25,2.82.51,4.54.73a28.6,28.6,0,0,0-.93,4.57A23.76,23.76,0,0,0,16.33,9.3C14.06,11.25,12,13.1,9.75,15c-.12-1.17-.47-2.51-.66-3.65C6.44,13,4,15.83,3.81,15.7a4.39,4.39,0,0,1-.94-.93"/></g></g></g></svg>